<svg xmlns="http://www.w3.org/2000/svg" style="width:0; height:0; visibility:hidden;">
    <symbol id="icon_app" viewBox="0 0 634 592.969">
        <path id="&#x424;&#x438;&#x433;&#x443;&#x440;&#x430;_1" data-name="&#x424;&#x438;&#x433;&#x443;&#x440;&#x430; 1" class="cls-1" d="M814.285,486.543L456.851,223.3a31.607,31.607,0,0,0-33.808-2.511,33.423,33.423,0,0,0-17.649,29.72l0.033,162.905H286.879c-10.641,0-19.268,9.648-19.268,21.555s8.627,21.561,19.268,21.561H405.436L405.442,491H213.266C202.625,491,194,500.648,194,512.554s8.625,21.562,19.266,21.562H405.45l0.008,35.591H286.879c-10.641,0-19.268,9.655-19.268,21.562s8.627,21.554,19.268,21.554H405.467L405.5,776.559a33.565,33.565,0,0,0,17.65,29.726A31.364,31.364,0,0,0,438.034,810a31.708,31.708,0,0,0,18.924-6.232L814.392,541.076A33.711,33.711,0,0,0,828,513.976,34.566,34.566,0,0,0,814.285,486.543ZM472.237,714.031V612.823h64.394c10.641,0,19.267-9.648,19.267-21.554s-8.626-21.562-19.267-21.562H472.056l-0.225-35.591H599.726c10.642,0,19.267-9.655,19.267-21.562S610.368,491,599.726,491H471.561l-0.216-34.469h65.286c10.641,0,19.267-9.654,19.267-21.561s-8.626-21.555-19.267-21.555H471.075L470.46,315.31,739.547,513.425Z" transform="translate(-194 -217.031)"/> 
    </symbol>
    <symbol id="icon_facebook" viewBox="0 0 14.188 27">
      <path d="M13.66.005L10.257 0C6.43 0 3.96 2.606 3.96 6.644v3.063H.534c-.295 0-.535.247-.535.55v4.44c0 .304.24.55.535.55H3.96V26.45c0 .304.238.55.534.55H8.96c.296 0 .536-.247.536-.55v-11.2h4.002c.296 0 .536-.248.536-.552v-4.44c0-.145-.055-.285-.155-.388-.102-.104-.238-.162-.38-.162H9.496V7.11c0-1.247.29-1.88 1.87-1.88l2.294-.002c.296 0 .535-.246.535-.55V.556c0-.304-.24-.55-.534-.55z" class="cls-1"/>
    </symbol>
    <symbol id="icon_instagram" viewBox="0 0 23.03 23.56">
      <path d="M20.35 5.633c0 .82-.65 1.486-1.452 1.486h-1.38c-.804 0-1.455-.667-1.455-1.487V4.22c0-.82.65-1.485 1.454-1.485h1.38c.803 0 1.454.665 1.454 1.485v1.413zm0 13.698c0 .82-.746 1.488-1.55 1.488H4.27c-.803 0-1.606-.667-1.606-1.487V11.9c0-.82.803-1.494 1.606-1.494h.822c.057 0 .11.006.16.015.307.06.504.287.525.578.004.05.002.1-.005.15-.005.035.076.072.072.106-.024.212.036.427.036.646 0 3.245 2.467 5.88 5.627 5.938-.035 0-.11.006-.145.006.035 0 .05-.005.087-.006.034 0 .06.006.096.006 3.21 0 5.806-2.662 5.807-5.943 0-.217-.02-.434-.045-.645-.004-.036-.003-.073-.007-.107-.006-.05-.01-.1-.005-.15.02-.29.217-.518.523-.577.05-.008.104-.014.162-.014h.82c.804 0 1.55.675 1.55 1.496v7.43zM8.63 11.9s.23-2.97 2.906-2.97c2.675 0 2.905 2.97 2.905 2.97s.086 2.973-2.904 2.973c-2.99 0-2.907-2.972-2.907-2.972zM20.123-.004H2.89c-1.604 0-2.905 1.33-2.905 2.97v17.62c0 1.64 1.3 2.972 2.906 2.972h17.234c1.605 0 2.906-1.33 2.906-2.97V2.966c0-1.64-1.3-2.972-2.906-2.972" class="cls-1"/>
    </symbol>
    <symbol id="icon_logo" viewBox="0 0 189 32.875">
      <path id="&#x424;&#x438;&#x433;&#x443;&#x440;&#x430;_1" data-name="&#x424;&#x438;&#x433;&#x443;&#x440;&#x430; 1" class="cls-1" d="M34.435 14.936L14.592.336a1.756 1.756 0 0 0-1.877-.14 1.854 1.854 0 0 0-.98 1.65v9.034h-6.58a1.2 1.2 0 0 0 0 2.39h6.58v1.912H1.07a1.2 1.2 0 0 0 0 2.39h10.67v1.975H5.155a1.2 1.2 0 0 0 0 2.39h6.583v9.082a1.86 1.86 0 0 0 .98 1.648 1.742 1.742 0 0 0 .825.206 1.762 1.762 0 0 0 1.05-.346l19.844-14.57a1.87 1.87 0 0 0 .754-1.5 1.917 1.917 0 0 0-.76-1.522zm-18.99 12.616V21.94h3.576a1.2 1.2 0 0 0 0-2.392h-3.584l-.012-1.973h7.1a1.2 1.2 0 0 0 0-2.39H15.41l-.01-1.91h3.624a1.2 1.2 0 0 0 0-2.39h-3.64l-.033-5.442L30.29 16.43zm40-10.68a8.333 8.333 0 0 0-1.76-1.423 22.22 22.22 0 0 0-2.465-1.3q-.567-.26-1.274-.548a7.85 7.85 0 0 1-1.293-.678 4.257 4.257 0 0 1-1.007-.9 1.67 1.67 0 0 1-.37-1.087 2.138 2.138 0 0 1 .165-.8 2.55 2.55 0 0 1 .462-.743 2.44 2.44 0 0 1 .71-.54 2.6 2.6 0 0 1 1.89-.062 6.406 6.406 0 0 1 .924.366 7.354 7.354 0 0 1 .825.476c.268.18.5.343.688.472a1.44 1.44 0 0 0 .7.323 2.028 2.028 0 0 0 .815-.02 2.426 2.426 0 0 0 .778-.325 2.03 2.03 0 0 0 .645-.66 1.963 1.963 0 0 0 .13-1.747 3.815 3.815 0 0 0-1.214-1.58 7.34 7.34 0 0 0-2.157-1.165 8.882 8.882 0 0 0-2.8-.5h-.206a8.44 8.44 0 0 0-2.456.366A7.32 7.32 0 0 0 44.82 6a6.15 6.15 0 0 0-.393 9.4 8.75 8.75 0 0 0 2.048 1.37 25.215 25.215 0 0 0 2.48 1.053 8.56 8.56 0 0 1 1.01.433 4.546 4.546 0 0 1 1 .675 4.018 4.018 0 0 1 .77.938 2.28 2.28 0 0 1 .3 1.185 3.127 3.127 0 0 1-.254 1.3 2.74 2.74 0 0 1-.675.938 3.057 3.057 0 0 1-.983.584 3.892 3.892 0 0 1-2.44.027 6.478 6.478 0 0 1-1.164-.473 9.1 9.1 0 0 1-1.058-.65c-.345-.246-.674-.476-.99-.693a1.9 1.9 0 0 0-1.335-.317 1.748 1.748 0 0 0-1.243.9 1.838 1.838 0 0 0-.32 1.03 2.9 2.9 0 0 0 .224 1.176 3.866 3.866 0 0 0 .758 1.16 4.82 4.82 0 0 0 1.373 1 13.755 13.755 0 0 0 2.182.9 7.6 7.6 0 0 0 2.34.358c.13 0 .263 0 .392-.008 2.622-.087 4.61-.81 5.905-2.148a7.558 7.558 0 0 0 2.018-5.3 6.7 6.7 0 0 0-.28-2.21 4.793 4.793 0 0 0-1.036-1.75zM75.4 4.643a2.22 2.22 0 0 0-1.816.653 2.07 2.07 0 0 0-.5 1.308V18.42a14.584 14.584 0 0 1-.182 2.438 4.3 4.3 0 0 1-.654 1.716 3.035 3.035 0 0 1-1.267 1.05 6.08 6.08 0 0 1-4.234-.016 3.08 3.08 0 0 1-1.284-1.08 4.782 4.782 0 0 1-.687-1.742 12.092 12.092 0 0 1-.213-2.367V6.602a1.96 1.96 0 0 0-.547-1.354 2.31 2.31 0 0 0-1.772-.607 2.238 2.238 0 0 0-1.778.644 2 2 0 0 0-.54 1.315v13.8a7.34 7.34 0 0 0 .8 3.513 7.67 7.67 0 0 0 2.058 2.458 8.744 8.744 0 0 0 2.855 1.454 11.2 11.2 0 0 0 3.215.475 11.322 11.322 0 0 0 3.248-.475 8.41 8.41 0 0 0 2.842-1.473 7.312 7.312 0 0 0 2.78-5.952v-13.8a1.96 1.96 0 0 0-.548-1.354 2.31 2.31 0 0 0-1.774-.605zM91.71 18.25l.083-.018.63-.13a6.22 6.22 0 0 0 3.48-2.043 6.762 6.762 0 0 0 1.3-4.443 8.72 8.72 0 0 0-.5-3.162 4.825 4.825 0 0 0-1.53-2.09 6.13 6.13 0 0 0-2.486-1.093 16.04 16.04 0 0 0-3.32-.31H84.66a9.332 9.332 0 0 0-1.37.083 1.945 1.945 0 0 0-.93.363 1.458 1.458 0 0 0-.492.8 4.6 4.6 0 0 0-.12 1.164v18.803a2.065 2.065 0 0 0 .5 1.307 2.133 2.133 0 0 0 1.753.652 2.423 2.423 0 0 0 1.8-.6 1.905 1.905 0 0 0 .586-1.36v-6.98l7.765 8.372a1.923 1.923 0 0 0 1.432.573c.065 0 .132 0 .2-.01a2.555 2.555 0 0 0 1.682-.79 2.235 2.235 0 0 0 .678-1.69 2.47 2.47 0 0 0-.742-1.67zm-5.326-3.995V9.2h2.982a7.462 7.462 0 0 1 1.276.108 2.834 2.834 0 0 1 1.02.375 1.827 1.827 0 0 1 .658.732 2.7 2.7 0 0 1 .247 1.234 2.334 2.334 0 0 1-.75 2.09 4.693 4.693 0 0 1-2.45.516h-2.983zm27.39-9.293h-9.636a2.682 2.682 0 0 0-1.672.443 1.918 1.918 0 0 0-.616 1.612V26.53a1.524 1.524 0 0 0 .545 1.1 2.45 2.45 0 0 0 1.743.51 2.576 2.576 0 0 0 1.766-.5 1.493 1.493 0 0 0 .584-1.1v-8.43h6.32a2.337 2.337 0 0 0 1.628-.474 2.058 2.058 0 0 0 .534-1.58 2.19 2.19 0 0 0-.543-1.6 2.442 2.442 0 0 0-1.62-.515h-6.32v-4.8h7.256a2.474 2.474 0 0 0 1.582-.46 1.9 1.9 0 0 0 .58-1.636 2.158 2.158 0 0 0-.584-1.606 2.28 2.28 0 0 0-1.546-.476zm13.594 1.2a2.147 2.147 0 0 0-.773-1.06 2.89 2.89 0 0 0-3.128 0 2.14 2.14 0 0 0-.77 1.052l-6.424 19.194a1.967 1.967 0 0 0 .22 2.17 2.446 2.446 0 0 0 1.74.62 2.368 2.368 0 0 0 1.662-.54 3.4 3.4 0 0 0 .856-1.343l1.3-3.48h5.933l1.424 3.644a3.43 3.43 0 0 0 .785 1.205 2.078 2.078 0 0 0 1.516.517h.12a2.41 2.41 0 0 0 1.745-.64 1.942 1.942 0 0 0 .28-2.088zm-4.342 12.406l2.006-6.613 2 6.613h-4.01zm30.847 3.636a1.7 1.7 0 0 0-1.827.26q-.4.316-.805.617a6.12 6.12 0 0 1-.862.534 5.615 5.615 0 0 1-1.1.41 6.648 6.648 0 0 1-1.46.2h-.144A5.59 5.59 0 0 1 145 23.6a6.146 6.146 0 0 1-2.04-1.754 7.98 7.98 0 0 1-1.247-2.54 10.5 10.5 0 0 1-.424-2.963 11.363 11.363 0 0 1 .378-2.94 8.078 8.078 0 0 1 1.112-2.478 5.832 5.832 0 0 1 1.81-1.718 4.688 4.688 0 0 1 2.457-.645 5.11 5.11 0 0 1 2.08.374 10.8 10.8 0 0 1 1.5.808c.443.29.85.537 1.207.73a1.47 1.47 0 0 0 1.328.05 2.144 2.144 0 0 0 .685-.407 2 2 0 0 0 .412-.475c.043-.09.1-.237.182-.44a1.706 1.706 0 0 0 .063-.85 2.71 2.71 0 0 0-.657-1.286 6.3 6.3 0 0 0-1.536-1.31 9.74 9.74 0 0 0-5.175-1.432 10.37 10.37 0 0 0-4.12.82 9.512 9.512 0 0 0-3.313 2.373 11.44 11.44 0 0 0-2.21 3.77 15.23 15.23 0 0 0-.845 5.052 14.115 14.115 0 0 0 .8 5.074 11 11 0 0 0 2.34 3.824 10.028 10.028 0 0 0 3.58 2.4 12.032 12.032 0 0 0 4.456.82 9.243 9.243 0 0 0 3.01-.464 9.487 9.487 0 0 0 2.267-1.106 6.393 6.393 0 0 0 1.47-1.342 2.884 2.884 0 0 0 .62-1.186 2.182 2.182 0 0 0-.215-1.223 1.99 1.99 0 0 0-1.105-.934zm16.718 1.442h-7.254V18.11h6.943a2.34 2.34 0 0 0 1.628-.474 2.062 2.062 0 0 0 .534-1.58 2.18 2.18 0 0 0-.526-1.6 2.266 2.266 0 0 0-1.637-.515h-6.944v-4.8h7.255a2.474 2.474 0 0 0 1.583-.46 1.906 1.906 0 0 0 .58-1.636 2.158 2.158 0 0 0-.584-1.606 2.284 2.284 0 0 0-1.55-.472h-9.634a2.682 2.682 0 0 0-1.672.443 1.918 1.918 0 0 0-.616 1.61v18.744a1.86 1.86 0 0 0 .66 1.637 2.83 2.83 0 0 0 1.628.42h9.605a3.047 3.047 0 0 0 1.86-.444 2.5 2.5 0 0 0 0-3.288 3.047 3.047 0 0 0-1.86-.443zm15.967-18.618h-3.12a1.306 1.306 0 0 0-1.16.578 3.306 3.306 0 0 0-.347 1.765 3.86 3.86 0 0 0 .258 1.748 1.12 1.12 0 0 0 1.063.532h1.237v16.944c0 .7.392 1.544 2.257 1.544s2.256-.84 2.256-1.544V6.986c0-.894-.424-1.96-2.443-1.96z"/>
    </symbol>
    <symbol id="icon_twitter" viewBox="0 0 27 22">
      <path d="M26.255.407c-1.07.636-2.257 1.098-3.52 1.348C21.726.673 20.288 0 18.696 0c-3.06 0-5.54 2.488-5.54 5.554 0 .435.048.86.142 1.266C8.694 6.588 4.613 4.376 1.88 1.015c-.476.82-.748 1.774-.748 2.793 0 1.928.98 3.628 2.463 4.623-.907-.03-1.76-.28-2.508-.697v.07c0 2.69 1.91 4.936 4.442 5.448-.465.126-.954.196-1.46.196-.358 0-.703-.036-1.043-.1.705 2.205 2.75 3.812 5.173 3.858-1.895 1.49-4.284 2.377-6.878 2.377-.448 0-.888-.026-1.322-.076C2.452 21.08 5.362 22 8.49 22c10.19 0 15.76-8.465 15.76-15.806l-.018-.72c1.086-.78 2.026-1.758 2.768-2.87-.994.44-2.06.74-3.18.874 1.143-.688 2.02-1.777 2.435-3.07z" class="cls-1"/>
    </symbol></svg>